<?xml version="1.0" encoding="utf-8"?>
<!-- Generator: Adobe Illustrator 27.3.1, SVG Export Plug-In . SVG Version: 6.00 Build 0)  -->
<svg version="1.1" id="Layer_1" xmlns="http://www.w3.org/2000/svg" xmlns:xlink="http://www.w3.org/1999/xlink" x="0px" y="0px"
	 viewBox="0 0 100 100" style="enable-background:new 0 0 100 100;" xml:space="preserve">
<style type="text/css">
	.st0{display:none;}
	.st1{display:inline;fill:#FFCCCC;stroke:#000000;stroke-width:4;stroke-linecap:round;stroke-miterlimit:10;}
	.st2{fill-rule:evenodd;clip-rule:evenodd;}
</style>
<g class="st0">
	<rect x="-1102.5" y="-159.5" class="st1" width="1225.4" height="301.5"/>
</g>
<g>
	<path class="st2" d="M53.5,95.7V84.8c0-1.9-1.6-3.5-3.5-3.5c-1.9,0-3.5,1.6-3.5,3.5v10.9c0,1.9,1.6,3.5,3.5,3.5
		C51.9,99.2,53.5,97.6,53.5,95.7z M72.1,77.1l7.7,7.7c1.4,1.4,3.6,1.4,5,0c1.4-1.4,1.4-3.6,0-5l-7.7-7.7c-1.4-1.4-3.6-1.4-5,0
		C70.8,73.5,70.8,75.7,72.1,77.1z M20.2,84.8l7.7-7.7c1.4-1.4,1.4-3.6,0-5c-1.4-1.4-3.6-1.4-5,0l-7.7,7.7c-1.4,1.4-1.4,3.6,0,5
		C16.6,86.2,18.8,86.2,20.2,84.8z M49.9,25.6c-13.7,0-24.7,11.1-24.7,24.7c0,13.7,11.1,24.7,24.7,24.7c13.7,0,24.7-11.1,24.7-24.7
		C74.7,36.7,63.6,25.6,49.9,25.6z M49.9,32.6c9.8,0,17.7,7.9,17.7,17.7s-7.9,17.7-17.7,17.7c-9.8,0-17.7-7.9-17.7-17.7
		S40.1,32.6,49.9,32.6z M84.8,53.5h10.9c1.9,0,3.5-1.6,3.5-3.5s-1.6-3.5-3.5-3.5H84.8c-1.9,0-3.5,1.6-3.5,3.5S82.9,53.5,84.8,53.5z
		 M4.3,53.5h10.9c1.9,0,3.5-1.6,3.5-3.5s-1.6-3.5-3.5-3.5H4.3c-1.9,0-3.5,1.6-3.5,3.5S2.4,53.5,4.3,53.5z M15.2,20.2l7.7,7.7
		c1.4,1.4,3.6,1.4,5,0c1.4-1.4,1.4-3.6,0-5l-7.7-7.7c-1.4-1.4-3.6-1.4-5,0C13.8,16.6,13.8,18.8,15.2,20.2z M77.1,27.9l7.7-7.7
		c1.4-1.4,1.4-3.6,0-5c-1.4-1.4-3.6-1.4-5,0l-7.7,7.7c-1.4,1.4-1.4,3.6,0,5C73.5,29.2,75.7,29.2,77.1,27.9z M53.5,15.2V4.3
		c0-1.9-1.6-3.5-3.5-3.5c-1.9,0-3.5,1.6-3.5,3.5v10.9c0,1.9,1.6,3.5,3.5,3.5C51.9,18.7,53.5,17.1,53.5,15.2z"/>
</g>
</svg>
