<?xml version="1.0" encoding="utf-8"?>
<!-- Generator: Adobe Illustrator 27.3.1, SVG Export Plug-In . SVG Version: 6.00 Build 0)  -->
<svg version="1.1" id="Layer_1" xmlns="http://www.w3.org/2000/svg" xmlns:xlink="http://www.w3.org/1999/xlink" x="0px" y="0px"
	 viewBox="0 0 100 100" style="enable-background:new 0 0 100 100;" xml:space="preserve">
<path d="M50,17.7c-6.1,0-11,5-11,11c0,6.1,5,11.1,11,11.1c6.1,0,11.1-5,11.1-11.1C61.1,22.6,56.1,17.7,50,17.7z M50,36.3
	c-4.2,0-7.6-3.4-7.6-7.6c0-4.2,3.4-7.6,7.6-7.6c4.2,0,7.6,3.4,7.6,7.6C57.6,32.9,54.2,36.3,50,36.3z M72,17.8
	C67.8,10.4,60.6,5.8,52.3,5.1c-1.5-0.1-3.1-0.1-4.5,0C39.4,5.8,32.2,10.4,28,17.8c-4.4,7.7-4.7,17.1-0.7,25l19.4,39.3
	c0.6,1.2,1.9,2,3.3,2s2.6-0.8,3.3-2l4-8.1c6.1,1.5,10.5,4.7,10.5,8.3c0,5-8.1,9.2-17.8,9.2s-17.8-4.2-17.8-9.2
	c0-2.3,1.9-4.6,5.1-6.3c0.8-0.4,1.2-1.5,0.7-2.3c-0.4-0.8-1.5-1.1-2.3-0.7c-4.4,2.4-6.9,5.7-6.9,9.4C28.8,89.4,38.1,95,50,95
	c11.9,0,21.2-5.6,21.2-12.6c0-5.2-5-9.6-12.4-11.5l13.9-28C76.6,34.9,76.4,25.6,72,17.8L72,17.8z M69.6,41.3L50.2,80.6h-0.3
	L30.4,41.3c-3.4-6.9-3.2-15,0.7-21.8c3.6-6.4,9.8-10.4,17-11c0.6-0.1,1.3-0.1,2-0.1c0.7,0,1.3,0,2,0.1h0c7.2,0.6,13.4,4.6,17,11
	C72.8,26.3,73,34.4,69.6,41.3L69.6,41.3z"/>
</svg>
