<?xml version="1.0" encoding="utf-8"?>
<!-- Generator: Adobe Illustrator 27.3.1, SVG Export Plug-In . SVG Version: 6.00 Build 0)  -->
<svg version="1.1" id="Layer_1" xmlns="http://www.w3.org/2000/svg" xmlns:xlink="http://www.w3.org/1999/xlink" x="0px" y="0px"
	 viewBox="0 0 100 100" style="enable-background:new 0 0 100 100;" xml:space="preserve">
<path d="M52.5,4.4C52,3.6,51,3.1,50,3.1s-2,0.5-2.5,1.3c-1.2,1.7-30.3,42.4-30.3,59.6c0,18.1,14.7,32.8,32.8,32.8
	s32.8-14.7,32.8-32.8C82.8,46.9,53.8,6.2,52.5,4.4L52.5,4.4z M50,90.6c-14.6,0-26.6-11.9-26.6-26.6c0-11.5,17.3-38.9,26.6-52.4
	c9.2,13.4,26.6,40.9,26.6,52.4C76.6,78.7,64.6,90.6,50,90.6z M71.9,64.1c0,12.1-9.8,21.9-21.9,21.9c-1.7,0-3.1-1.4-3.1-3.1
	s1.4-3.1,3.1-3.1c8.6,0,15.6-7,15.6-15.6c0-1.7,1.4-3.1,3.1-3.1S71.9,62.3,71.9,64.1z"/>
</svg>
