<?xml version="1.0" encoding="utf-8"?>
<!-- Generator: Adobe Illustrator 27.3.1, SVG Export Plug-In . SVG Version: 6.00 Build 0)  -->
<svg version="1.1" id="Layer_1" xmlns="http://www.w3.org/2000/svg" xmlns:xlink="http://www.w3.org/1999/xlink" x="0px" y="0px"
	 viewBox="0 0 100 100" style="enable-background:new 0 0 100 100;" xml:space="preserve">
<path d="M84.3,16.5h-6.7V7.9c0-1.2-1-2.1-2.1-2.1s-2.1,0.9-2.1,2.1v8.5H52.1V7.9c0-1.2-1-2.1-2.1-2.1s-2.1,0.9-2.1,2.1v8.5H27.7V7.9
	c0-1.2-1-2.1-2.1-2.1s-2.1,0.9-2.1,2.1v8.5h-7.7c-5.5,0-9.9,4.4-9.9,9.9v58c0,5.5,4.4,9.9,9.9,9.9h68.6c5.5,0,9.9-4.4,9.9-9.9v-58
	C94.2,20.9,89.8,16.5,84.3,16.5L84.3,16.5z M15.7,20.7h7.7v2.4c0,1.2,1,2.1,2.1,2.1s2.1-0.9,2.1-2.1v-2.4h20.2v2.4
	c0,1.2,1,2.1,2.1,2.1s2.1-0.9,2.1-2.1v-2.4h21.3v2.4c0,1.2,1,2.1,2.1,2.1s2.1-0.9,2.1-2.1v-2.4h6.7c3.1,0,5.6,2.5,5.6,5.6V29H10
	v-2.7C10,23.2,12.6,20.7,15.7,20.7L15.7,20.7z M84.3,90H15.7c-3.1,0-5.6-2.5-5.6-5.6V33.3H90v51.1C90,87.4,87.4,90,84.3,90L84.3,90z
	"/>
</svg>
